<svg width="36" height="36" viewBox="0 0 36 36" fill="none" xmlns="http://www.w3.org/2000/svg">
<g id="facebook (2) 1">
<g id="_x30_1._Facebook">
<path id="Icon_11_" d="M14.5574 19.8598C14.4443 19.8598 12.073 19.8605 10.9793 19.8594C10.4163 19.8591 10.2154 19.6567 10.2154 19.0901C10.2147 17.6346 10.2143 16.1791 10.2154 14.7237C10.2158 14.1642 10.4282 13.9507 10.984 13.9504C12.0777 13.9497 14.436 13.95 14.5574 13.95C14.5574 13.8503 14.557 11.749 14.5574 10.7813C14.5581 9.35066 14.8133 7.98122 15.5402 6.72733C16.2843 5.44393 17.3672 4.56481 18.755 4.05649C19.6438 3.73069 20.5665 3.60073 21.5097 3.60001C22.6898 3.59929 23.8698 3.60037 25.0503 3.60253C25.5575 3.60325 25.7825 3.82753 25.7836 4.33837C25.7858 5.70745 25.7858 7.07653 25.7836 8.44525C25.7829 8.96149 25.5672 9.16886 25.0485 9.17461C24.0812 9.18506 23.1131 9.17858 22.1469 9.21745C21.1709 9.21745 20.6576 9.6941 20.6576 10.7043C20.6342 11.7727 20.6478 12.8423 20.6478 13.9497C20.7393 13.9497 23.5167 13.9493 24.8148 13.9497C25.4045 13.9497 25.6061 14.1523 25.6061 14.7453C25.6061 16.1928 25.6058 17.6407 25.6047 19.0883C25.6043 19.6726 25.415 19.8591 24.8217 19.8594C23.5235 19.8601 20.7569 19.8598 20.636 19.8598V31.576C20.636 32.2006 20.4394 32.3997 19.8231 32.3997C18.3204 32.3997 16.8174 32.4 15.3148 32.3997C14.7701 32.3997 14.5577 32.188 14.5577 31.6433C14.5574 27.8277 14.5574 19.9937 14.5574 19.8598Z" fill="#3D6AD6"/>
</g>
</g>
</svg>
